PathFileType	4	(X/Y/Z)	./resultDataOpenSim/trcMotMarkerGrf/sub10/qtm-13-04.trc
DataRate	CameraRate	NumFrames	NumMarkers	Units	OrigDataRate	OrigDataStartFrame	OrigNumFrames
250.000000	250.000000	14	24	m	250.000000	1	479
Frame#	Time	L.Toe.Tip			R.Toe.Tip			L.Ankle.Lat			R.Ankle.Lat			L.Ankle.Med			R.Ankle.Med			L.Heel			R.Heel			L.Knee.Lat			R.Knee.Lat			L.Knee.Med			R.Knee.Med			L.Thigh.Upper			R.Thigh.Upper			L.ASIS			R.ASIS			V.Sacral			L.Acromium			R.Acromium			C7			L.Elbow			R.Elbow			L.Wrist.Lat			R.Wrist.Lat
		X1	Y1	Z1	X2	Y2	Z2	X3	Y3	Z3	X4	Y4	Z4	X5	Y5	Z5	X6	Y6	Z6	X7	Y7	Z7	X8	Y8	Z8	X9	Y9	Z9	X10	Y10	Z10	X11	Y11	Z11	X12	Y12	Z12	X13	Y13	Z13	X14	Y14	Z14	X15	Y15	Z15	X16	Y16	Z16	X17	Y17	Z17	X18	Y18	Z18	X19	Y19	Z19	X20	Y20	Z20	X21	Y21	Z21	X22	Y22	Z22	X23	Y23	Z23	X24	Y24	Z24

1	0	-1.481172	0.038734857	-0.25454272	-0.94391134	0.11246345	-0.055095917	-1.6130677	0.064371822	-0.2925522	-1.0797985	0.0735867	-0.044193335	-1.6141287	0.089645075	-0.20979655	-1.0600191	0.11198899	-0.12113297	-1.6810856	0.040084318	-0.26045841	-1.1052352	0.033043996	-0.10171631	-1.4897824	0.43070501	-0.32156635	-1.204827	0.45690824	-0.019674516	-1.4976134	0.41406401	-0.20183263	-1.1766983	0.46608292	-0.14553542	-1.377989	0.81026229	-0.37838474	-1.3611035	0.8506726	0.0048186193	-1.3047987	0.91597782	-0.31907473	-1.2919861	0.94127208	-0.075143285	-1.4949163	0.94128588	-0.1910896	-1.2897809	1.3825576	-0.35525425	-1.3442441	1.3874701	-0.035338747	-1.398515	1.4265516	-0.21377911	-1.3199149	1.0334908	-0.41179466	-1.4805742	1.0603859	-0.00049439726	-1.1074357	0.90521537	-0.41017194	-1.3690122	0.87173262	0.11178215
2	0.004	-1.4814727	0.038550813	-0.25411004	-0.93004501	0.11658491	-0.056296288	-1.6128496	0.064708954	-0.29240824	-1.0650885	0.074695651	-0.042676631	-1.6135524	0.090056847	-0.20962125	-1.046979	0.11327319	-0.11987092	-1.6809865	0.04106844	-0.2602311	-1.0904356	0.033727161	-0.099770265	-1.4863967	0.43011776	-0.32137913	-1.1986544	0.45532316	-0.018667306	-1.4938739	0.41347652	-0.20160729	-1.1721806	0.46352559	-0.14533567	-1.3727658	0.80906007	-0.3781635	-1.3551391	0.84876903	0.0052826608	-1.2998868	0.91505137	-0.31884022	-1.2863686	0.94008962	-0.074805436	-1.4897821	0.93929158	-0.19019079	-1.2850406	1.3812297	-0.35466184	-1.3397393	1.3858262	-0.034818561	-1.3940028	1.4251747	-0.21326371	-1.3136597	1.0320205	-0.41124255	-1.4764243	1.058675	-0.00044697003	-1.1000521	0.90573537	-0.40890597	-1.3641737	0.87050911	0.11285799
3	0.008	-1.4818276	0.038428626	-0.2536593	-0.91648308	0.12054396	-0.057237383	-1.612664	0.065144101	-0.29222763	-1.0507068	0.075837061	-0.04119268	-1.6129076	0.090519408	-0.20939606	-1.0341736	0.11461401	-0.11863773	-1.6809326	0.042026417	-0.26001459	-1.0758779	0.034431761	-0.097742793	-1.4829996	0.42953848	-0.32118871	-1.1924551	0.45381352	-0.017677709	-1.4901527	0.41282794	-0.20136867	-1.167648	0.46101797	-0.14503926	-1.3675011	0.80786032	-0.37784891	-1.3491006	0.84686531	0.0057516023	-1.2949553	0.91410243	-0.31860396	-1.2807118	0.93889271	-0.074476606	-1.4846811	0.93729217	-0.18929607	-1.2802559	1.3798958	-0.35405238	-1.3351416	1.3841885	-0.0342901	-1.3895504	1.4238147	-0.21274182	-1.3074173	1.030561	-0.41066539	-1.4725294	1.0569531	-0.00073487849	-1.0926948	0.90625114	-0.40762702	-1.3595541	0.86927197	0.11390178
4	0.012	-1.4821186	0.038385253	-0.25330671	-0.90342494	0.12422458	-0.057580319	-1.6125197	0.065709004	-0.29201401	-1.0368782	0.076985482	-0.03976105	-1.61221	0.091048672	-0.20912441	-1.0217342	0.1160137	-0.11742871	-1.6810047	0.042985197	-0.25989327	-1.0617221	0.035164538	-0.095622436	-1.4795699	0.42896632	-0.32098789	-1.1861751	0.45244395	-0.016700899	-1.4864072	0.41207875	-0.20110914	-1.1631082	0.45860349	-0.14459993	-1.3621676	0.806682	-0.37743273	-1.3429433	0.84495166	0.0062350557	-1.2899808	0.91312435	-0.3183522	-1.2749973	0.93767798	-0.074164278	-1.4796169	0.93528638	-0.18840293	-1.2754125	1.3785615	-0.35341701	-1.3304553	1.3825649	-0.033739718	-1.3851339	1.4224686	-0.21222014	-1.3011828	1.0291234	-0.41004443	-1.4688338	1.0552273	-0.0013025547	-1.0853922	0.90675773	-0.40633703	-1.3551057	0.86803232	0.1149208
5	0.016	-1.4822313	0.038376085	-0.2531355	-0.89097628	0.12761134	-0.057287868	-1.6123913	0.066380505	-0.29182108	-1.0237718	0.078066351	-0.038421729	-1.6115889	0.09162037	-0.20887229	-1.0097235	0.11742063	-0.11623279	-1.6812913	0.044030361	-0.26000003	-1.0481127	0.035951827	-0.093522735	-1.476111	0.42840044	-0.32077428	-1.1797616	0.45125182	-0.015714009	-1.4825809	0.41121946	-0.20083056	-1.1585665	0.45633048	-0.14401531	-1.3567808	0.80554789	-0.37699146	-1.3366689	0.84303413	0.0067518369	-1.2849544	0.91212291	-0.3180709	-1.2692376	0.93645423	-0.073867514	-1.474566	0.93328175	-0.18749158	-1.2705215	1.3772497	-0.3527597	-1.3257309	1.3809673	-0.033161068	-1.3806711	1.4211237	-0.21169216	-1.2949576	1.0277185	-0.40937555	-1.4650381	1.0535241	-0.0017727614	-1.0781866	0.907249	-0.40505055	-1.3506507	0.86681888	0.11594002
6	0.02	-1.4821984	0.038339669	-0.25309193	-0.87911152	0.13069125	-0.056760863	-1.6122705	0.067173594	-0.2917463	-1.0114426	0.079039409	-0.037204158	-1.6111003	0.092205565	-0.20867318	-0.9981768	0.11877386	-0.1150477	-1.6818255	0.045248886	-0.26041526	-1.0351788	0.036811101	-0.091616452	-1.4726471	0.42784685	-0.32053974	-1.1731556	0.45025128	-0.014694551	-1.4786624	0.41029597	-0.2005367	-1.1539652	0.45424885	-0.14329895	-1.3513892	0.80446216	-0.37661321	-1.3303224	0.84112508	0.0073120494	-1.2798711	0.91110405	-0.317762	-1.2634583	0.93522863	-0.073575903	-1.4694799	0.93129973	-0.18652079	-1.2655899	1.3759856	-0.35208526	-1.3209969	1.3794074	-0.03256113	-1.3761012	1.4197788	-0.21112856	-1.2887458	1.0263503	-0.4086627	-1.460935	1.0518645	-0.0018794239	-1.071098	0.90772157	-0.40377659	-1.3460837	0.86565259	0.11697033
7	0.024	-1.4821128	0.038251542	-0.25308654	-0.86772356	0.13334784	-0.056399449	-1.6121903	0.068145447	-0.29185218	-0.9997953	0.079925313	-0.036073601	-1.6105496	0.092805345	-0.20844538	-0.98711899	0.12003374	-0.11386682	-1.6825533	0.046667992	-0.26110237	-1.0229887	0.037696288	-0.09000549	-1.4691812	0.4273144	-0.32026435	-1.1663029	0.44945762	-0.013636773	-1.4746917	0.4094058	-0.20022166	-1.1491978	0.4524002	-0.14248209	-1.3460415	0.80341883	-0.37632956	-1.3239538	0.83923032	0.0079005539	-1.2747203	0.91007339	-0.31743607	-1.2576779	0.93400199	-0.073280761	-1.4643104	0.92937436	-0.18545791	-1.2606357	1.3747787	-0.35139834	-1.3162564	1.3778978	-0.031953402	-1.3714325	1.4184435	-0.21052658	-1.2825518	1.0250205	-0.40791247	-1.4565533	1.0502557	-0.001653015	-1.0640954	0.90817754	-0.40249789	-1.3414422	0.86453008	0.1180001
8	0.028	-1.4820324	0.038134769	-0.25307124	-0.85677437	0.13547632	-0.056283056	-1.612138	0.069269245	-0.29204928	-0.9887096	0.080733895	-0.034970699	-1.6096949	0.09344574	-0.20808477	-0.97655906	0.12117609	-0.11268186	-1.6833573	0.048254938	-0.26193181	-1.0115271	0.038521065	-0.088660016	-1.465685	0.42680892	-0.31993774	-1.159175	0.44889259	-0.012555063	-1.4707449	0.40861541	-0.19986626	-1.1441578	0.45081713	-0.14161094	-1.3407445	0.80242351	-0.37610412	-1.317551	0.83736781	0.0084967396	-1.2694909	0.90903395	-0.31709718	-1.2518821	0.93276976	-0.072981212	-1.4590287	0.92752662	-0.18431537	-1.2556904	1.3736191	-0.3507101	-1.3115066	1.3764499	-0.031341825	-1.3667079	1.4171209	-0.20992351	-1.276382	1.0237361	-0.40714195	-1.4520113	1.048698	-0.0012412052	-1.0571083	0.90861977	-0.40117315	-1.3368184	0.86343477	0.11901306
9	0.032	-1.4819701	0.038034079	-0.25303944	-0.84634005	0.13708905	-0.056287019	-1.6120222	0.070406358	-0.29216174	-0.97815598	0.081424548	-0.033875242	-1.6085786	0.094144475	-0.20761287	-0.96649439	0.1221701	-0.11149667	-1.6840969	0.049948832	-0.26273661	-1.0007098	0.039205443	-0.087430994	-1.4621314	0.42633012	-0.31957304	-1.1517865	0.44855611	-0.011484573	-1.4668848	0.40790927	-0.19945337	-1.1387709	0.44952434	-0.14072892	-1.3354659	0.80149108	-0.37587593	-1.3110496	0.83557076	0.0090996479	-1.264184	0.90798191	-0.31674652	-1.246039	0.93152196	-0.072680051	-1.453625	0.92574761	-0.18314948	-1.2507679	1.3724929	-0.35002887	-1.3067563	1.3750646	-0.030719414	-1.3619585	1.4158109	-0.20934552	-1.2702498	1.0225147	-0.40638455	-1.4473854	1.0471873	-0.00074749592	-1.0501029	0.90904783	-0.39978837	-1.3322324	0.86236189	0.12000829
10	0.036	-1.4819143	0.037976178	-0.25300705	-0.83650159	0.13825457	-0.056277556	-1.6117802	0.071453052	-0.29212704	-0.96816604	0.081943453	-0.032803365	-1.6074955	0.094896939	-0.20716604	-0.95691254	0.12297614	-0.11032462	-1.6846403	0.051686241	-0.26336014	-0.99045741	0.039708203	-0.086161711	-1.4585117	0.4258702	-0.31919574	-1.1442139	0.44839621	-0.010475431	-1.4630489	0.40724536	-0.19899689	-1.1330236	0.44853243	-0.13987455	-1.3301869	0.80061691	-0.37560577	-1.3043936	0.83386567	0.0097223905	-1.2588087	0.90691366	-0.3163886	-1.2401402	0.93024868	-0.07238023	-1.4481182	0.92401946	-0.18202016	-1.2458554	1.3713995	-0.3493552	-1.3020056	1.3737246	-0.030082978	-1.3571895	1.4145219	-0.20877512	-1.2641706	1.0213807	-0.40566883	-1.442698	1.0457208	-0.00020935857	-1.0431336	0.90945994	-0.39839184	-1.3276384	0.86131768	0.12099628
11	0.04	-1.4818504	0.037957534	-0.25299349	-0.82724041	0.13902671	-0.056168244	-1.6114249	0.072421741	-0.29200543	-0.95877027	0.08225686	-0.031777986	-1.6066769	0.095697532	-0.2068624	-0.94779681	0.12355796	-0.10918222	-1.6849013	0.053419112	-0.26370557	-0.98080841	0.040041095	-0.084865773	-1.4548276	0.42541763	-0.31882693	-1.1365561	0.4483246	-0.00956986	-1.4590803	0.40661222	-0.1985419	-1.1269524	0.44784149	-0.13908068	-1.324932	0.7997643	-0.37527951	-1.297565	0.83226032	0.010375024	-1.2533668	0.90583318	-0.3160272	-1.2342053	0.92894499	-0.072082488	-1.4425932	0.92236469	-0.18093894	-1.2409398	1.3703492	-0.3486885	-1.2972221	1.37241	-0.029430062	-1.3523907	1.4132649	-0.2081781	-1.2581396	1.0203439	-0.40496822	-1.4379461	1.0443007	0.00037273652	-1.0362777	0.90985244	-0.39704305	-1.3229861	0.86030543	0.12198572
12	0.044	-1.4817726	0.037962674	-0.25300487	-0.81844644	0.13943746	-0.05591282	-1.6109912	0.073380822	-0.29187052	-0.94997313	0.082353382	-0.030813595	-1.606088	0.096553779	-0.20671028	-0.93914364	0.1238857	-0.10809403	-1.684874	0.05513202	-0.26378188	-0.97189213	0.040228462	-0.083705474	-1.4510718	0.42496221	-0.31847168	-1.1288526	0.44826688	-0.0087860586	-1.4549321	0.40601377	-0.19812144	-1.1205785	0.44744981	-0.13836026	-1.3197383	0.7988945	-0.37489577	-1.2905741	0.83074714	0.01106065	-1.2478585	0.90474095	-0.31566795	-1.2282416	0.92760746	-0.071783886	-1.4372158	0.92090464	-0.17981631	-1.2360137	1.3693473	-0.34802598	-1.2923114	1.371119	-0.028748381	-1.3475579	1.4120408	-0.20755245	-1.2521197	1.0193788	-0.40417959	-1.4331206	1.0429319	0.0010081355	-1.0295469	0.91021977	-0.39574586	-1.3182464	0.85932346	0.12297902
13	0.048	-1.4816856	0.037978921	-0.25303249	-0.8100437	0.13950475	-0.055506414	-1.6105088	0.074393929	-0.29179477	-0.94175579	0.082234815	-0.029915154	-1.6054802	0.097470914	-0.20661667	-0.93096952	0.12393363	-0.10709365	-1.6846295	0.056850891	-0.26369901	-0.96376282	0.040252002	-0.082769077	-1.4472184	0.42449511	-0.31811714	-1.1210773	0.44819135	-0.0081252193	-1.4507077	0.40544125	-0.19772837	-1.1138878	0.44734375	-0.13770922	-1.3146134	0.79800899	-0.37447129	-1.2834398	0.82932057	0.011773954	-1.2423023	0.90361817	-0.31533032	-1.2222171	0.92623557	-0.071482004	-1.4320781	0.91988866	-0.17842389	-1.231064	1.3683933	-0.34735971	-1.2871482	1.3698676	-0.028019738	-1.3426967	1.4108448	-0.20692239	-1.2460727	1.0184319	-0.40320144	-1.4282166	1.0416155	0.0016982452	-1.0228999	0.91056105	-0.39446249	-1.3134111	0.85837011	0.12397069
14	0.052	-1.4815981	0.037999961	-0.25307003	-0.80210135	0.13921553	-0.054984469	-1.6099913	0.075496947	-0.29182334	-0.93410099	0.081906137	-0.02908775	-1.6046429	0.098447033	-0.20648764	-0.92329745	0.12368369	-0.10621209	-1.6842632	0.058628188	-0.2635967	-0.95635642	0.040063556	-0.082003136	-1.4432481	0.42401008	-0.31775483	-1.1132021	0.44810125	-0.0075810709	-1.446483	0.40488376	-0.19733955	-1.1068709	0.44748458	-0.1371252	-1.3095317	0.79715357	-0.37403402	-1.2761765	0.82800242	0.012503924	-1.2367316	0.90243858	-0.31504046	-1.216083	0.92483803	-0.071180959	-1.4269167	0.91954197	-0.17651156	-1.226077	1.3674938	-0.34668238	-1.2817403	1.3686731	-0.027241997	-1.3378076	1.4096811	-0.20628576	-1.2400074	1.0174632	-0.40204991	-1.4232389	1.0403489	0.0024284064	-1.0163049	0.91088552	-0.39316979	-1.3084845	0.85744392	0.12494593
